<mxfile host="65bd71144e">
    <diagram id="JIQ5hjgDaMGBC97dyVst" name="Page-1">
        <mxGraphModel dx="1742" dy="991" grid="1" gridSize="10" guides="1" tooltips="1" connect="1" arrows="1" fold="1" page="1" pageScale="1" pageWidth="1100" pageHeight="850" math="0" shadow="0">
            <root>
                <mxCell id="0"/>
                <mxCell id="1" parent="0"/>
                <mxCell id="2" value="" style="endArrow=none;html=1;fillColor=#f8cecc;strokeColor=#b85450;" edge="1" parent="1">
                    <mxGeometry width="50" height="50" relative="1" as="geometry">
                        <mxPoint x="270" y="560" as="sourcePoint"/>
                        <mxPoint x="420" y="310" as="targetPoint"/>
                    </mxGeometry>
                </mxCell>
                <mxCell id="3" value="" style="endArrow=none;html=1;fillColor=#f8cecc;strokeColor=#b85450;" edge="1" parent="1">
                    <mxGeometry width="50" height="50" relative="1" as="geometry">
                        <mxPoint x="250" y="540" as="sourcePoint"/>
                        <mxPoint x="420" y="310" as="targetPoint"/>
                    </mxGeometry>
                </mxCell>
                <mxCell id="4" value="" style="endArrow=none;html=1;fillColor=#f8cecc;strokeColor=#b85450;" edge="1" parent="1">
                    <mxGeometry width="50" height="50" relative="1" as="geometry">
                        <mxPoint x="240" y="510" as="sourcePoint"/>
                        <mxPoint x="420" y="310" as="targetPoint"/>
                    </mxGeometry>
                </mxCell>
                <mxCell id="5" value="" style="endArrow=none;html=1;fillColor=#dae8fc;strokeColor=#6c8ebf;" edge="1" parent="1">
                    <mxGeometry width="50" height="50" relative="1" as="geometry">
                        <mxPoint x="240" y="510" as="sourcePoint"/>
                        <mxPoint x="490" y="550" as="targetPoint"/>
                    </mxGeometry>
                </mxCell>
                <mxCell id="6" value="" style="endArrow=none;html=1;fillColor=#dae8fc;strokeColor=#6c8ebf;" edge="1" parent="1">
                    <mxGeometry width="50" height="50" relative="1" as="geometry">
                        <mxPoint x="240" y="510" as="sourcePoint"/>
                        <mxPoint x="510" y="530" as="targetPoint"/>
                    </mxGeometry>
                </mxCell>
                <mxCell id="7" value="" style="endArrow=none;html=1;fillColor=#dae8fc;strokeColor=#6c8ebf;" edge="1" parent="1">
                    <mxGeometry width="50" height="50" relative="1" as="geometry">
                        <mxPoint x="240" y="510" as="sourcePoint"/>
                        <mxPoint x="540" y="510" as="targetPoint"/>
                    </mxGeometry>
                </mxCell>
                <mxCell id="8" value="" style="endArrow=none;html=1;fillColor=#ffe6cc;strokeColor=#d79b00;" edge="1" parent="1">
                    <mxGeometry width="50" height="50" relative="1" as="geometry">
                        <mxPoint x="420" y="310" as="sourcePoint"/>
                        <mxPoint x="490" y="550" as="targetPoint"/>
                    </mxGeometry>
                </mxCell>
                <mxCell id="9" value="" style="endArrow=none;html=1;fillColor=#ffe6cc;strokeColor=#d79b00;" edge="1" parent="1">
                    <mxGeometry width="50" height="50" relative="1" as="geometry">
                        <mxPoint x="390" y="310" as="sourcePoint"/>
                        <mxPoint x="490" y="550" as="targetPoint"/>
                    </mxGeometry>
                </mxCell>
                <mxCell id="10" value="" style="endArrow=none;html=1;fillColor=#ffe6cc;strokeColor=#d79b00;" edge="1" parent="1">
                    <mxGeometry width="50" height="50" relative="1" as="geometry">
                        <mxPoint x="360" y="310" as="sourcePoint"/>
                        <mxPoint x="490" y="550" as="targetPoint"/>
                    </mxGeometry>
                </mxCell>
                <mxCell id="11" value="" style="endArrow=none;html=1;fillColor=#f8cecc;strokeColor=#b85450;" edge="1" parent="1">
                    <mxGeometry width="50" height="50" relative="1" as="geometry">
                        <mxPoint x="240" y="510" as="sourcePoint"/>
                        <mxPoint x="390" y="310" as="targetPoint"/>
                    </mxGeometry>
                </mxCell>
                <mxCell id="12" value="" style="endArrow=none;html=1;fillColor=#f8cecc;strokeColor=#b85450;" edge="1" parent="1">
                    <mxGeometry width="50" height="50" relative="1" as="geometry">
                        <mxPoint x="240" y="510" as="sourcePoint"/>
                        <mxPoint x="360" y="310" as="targetPoint"/>
                    </mxGeometry>
                </mxCell>
                <mxCell id="14" value="" style="endArrow=none;html=1;fillColor=#dae8fc;strokeColor=#6c8ebf;" edge="1" parent="1">
                    <mxGeometry width="50" height="50" relative="1" as="geometry">
                        <mxPoint x="250" y="540" as="sourcePoint"/>
                        <mxPoint x="490" y="550" as="targetPoint"/>
                    </mxGeometry>
                </mxCell>
                <mxCell id="15" value="" style="endArrow=none;html=1;fillColor=#dae8fc;strokeColor=#6c8ebf;" edge="1" parent="1">
                    <mxGeometry width="50" height="50" relative="1" as="geometry">
                        <mxPoint x="270" y="560" as="sourcePoint"/>
                        <mxPoint x="490" y="550" as="targetPoint"/>
                    </mxGeometry>
                </mxCell>
                <mxCell id="17" value="" style="endArrow=none;html=1;fillColor=#ffe6cc;strokeColor=#d79b00;" edge="1" parent="1">
                    <mxGeometry width="50" height="50" relative="1" as="geometry">
                        <mxPoint x="420" y="310" as="sourcePoint"/>
                        <mxPoint x="510" y="530" as="targetPoint"/>
                    </mxGeometry>
                </mxCell>
                <mxCell id="18" value="" style="endArrow=none;html=1;fillColor=#ffe6cc;strokeColor=#d79b00;" edge="1" parent="1">
                    <mxGeometry width="50" height="50" relative="1" as="geometry">
                        <mxPoint x="420" y="310" as="sourcePoint"/>
                        <mxPoint x="540" y="510" as="targetPoint"/>
                    </mxGeometry>
                </mxCell>
            </root>
        </mxGraphModel>
    </diagram>
</mxfile>